<mxfile host="app.diagrams.net" modified="2021-12-11T13:01:53.501Z" agent="5.0 (Windows NT 10.0; Win64; x64) AppleWebKit/537.36 (KHTML, like Gecko) Chrome/96.0.4664.93 Safari/537.36" etag="X0C-8dB41sdHHXmw2uCV" version="15.9.4" type="github">
  <diagram id="C5RBs43oDa-KdzZeNtuy" name="Page-1">
    <mxGraphModel dx="1038" dy="500" grid="1" gridSize="10" guides="1" tooltips="1" connect="1" arrows="1" fold="1" page="1" pageScale="1" pageWidth="827" pageHeight="1169" background="none" math="0" shadow="0">
      <root>
        <mxCell id="WIyWlLk6GJQsqaUBKTNV-0" />
        <mxCell id="WIyWlLk6GJQsqaUBKTNV-1" parent="WIyWlLk6GJQsqaUBKTNV-0" />
        <mxCell id="WIyWlLk6GJQsqaUBKTNV-2" value="" style="rounded=0;html=1;jettySize=auto;orthogonalLoop=1;fontSize=11;endArrow=block;endFill=0;endSize=8;strokeWidth=1;shadow=0;labelBackgroundColor=none;edgeStyle=orthogonalEdgeStyle;" parent="WIyWlLk6GJQsqaUBKTNV-1" source="WIyWlLk6GJQsqaUBKTNV-3" target="WIyWlLk6GJQsqaUBKTNV-6" edge="1">
          <mxGeometry relative="1" as="geometry" />
        </mxCell>
        <mxCell id="WIyWlLk6GJQsqaUBKTNV-3" value="Start" style="rounded=1;whiteSpace=wrap;html=1;fontSize=12;glass=0;strokeWidth=1;shadow=0;fillColor=#d5e8d4;strokeColor=#82b366;" parent="WIyWlLk6GJQsqaUBKTNV-1" vertex="1">
          <mxGeometry x="37.5" y="80" width="120" height="40" as="geometry" />
        </mxCell>
        <mxCell id="WIyWlLk6GJQsqaUBKTNV-6" value="&lt;span style=&quot;color: rgb(102 , 102 , 102) ; font-family: &amp;#34;metropolis&amp;#34; , &amp;#34;avenir next&amp;#34; , &amp;#34;helvetica neue&amp;#34; , &amp;#34;arial&amp;#34; , sans-serif ; font-size: 10.5px ; background-color: rgb(250 , 250 , 250)&quot;&gt;evenly divisible by 4?&lt;br&gt;&lt;/span&gt;&lt;span style=&quot;color: rgb(102 , 102 , 102) ; font-family: &amp;#34;metropolis&amp;#34; , &amp;#34;avenir next&amp;#34; , &amp;#34;helvetica neue&amp;#34; , &amp;#34;arial&amp;#34; , sans-serif ; font-size: 10.5px ; background-color: rgb(250 , 250 , 250)&quot;&gt;year % 4 == 0&lt;/span&gt;&lt;span style=&quot;color: rgb(102 , 102 , 102) ; font-family: &amp;#34;metropolis&amp;#34; , &amp;#34;avenir next&amp;#34; , &amp;#34;helvetica neue&amp;#34; , &amp;#34;arial&amp;#34; , sans-serif ; font-size: 10.5px ; background-color: rgb(250 , 250 , 250)&quot;&gt;&lt;br&gt;&lt;/span&gt;" style="rhombus;whiteSpace=wrap;html=1;shadow=0;fontFamily=Helvetica;fontSize=12;align=center;strokeWidth=1;spacing=6;spacingTop=-4;fillColor=#fff2cc;strokeColor=#d6b656;" parent="WIyWlLk6GJQsqaUBKTNV-1" vertex="1">
          <mxGeometry x="20" y="190" width="155" height="120" as="geometry" />
        </mxCell>
        <mxCell id="WIyWlLk6GJQsqaUBKTNV-11" value="Not leap year" style="rounded=1;whiteSpace=wrap;html=1;fontSize=12;glass=0;strokeWidth=1;shadow=0;fillColor=#f8cecc;strokeColor=#b85450;" parent="WIyWlLk6GJQsqaUBKTNV-1" vertex="1">
          <mxGeometry x="37.5" y="360" width="120" height="40" as="geometry" />
        </mxCell>
        <mxCell id="x_gosHO5D3b1VZ5-VZWY-1" value="" style="endArrow=classic;html=1;rounded=0;exitX=1;exitY=0.5;exitDx=0;exitDy=0;" edge="1" parent="WIyWlLk6GJQsqaUBKTNV-1" source="WIyWlLk6GJQsqaUBKTNV-6">
          <mxGeometry width="50" height="50" relative="1" as="geometry">
            <mxPoint x="147.5" y="220" as="sourcePoint" />
            <mxPoint x="227.5" y="250" as="targetPoint" />
          </mxGeometry>
        </mxCell>
        <mxCell id="x_gosHO5D3b1VZ5-VZWY-4" value="&lt;span style=&quot;color: rgb(102 , 102 , 102) ; font-family: &amp;#34;metropolis&amp;#34; , &amp;#34;avenir next&amp;#34; , &amp;#34;helvetica neue&amp;#34; , &amp;#34;arial&amp;#34; , sans-serif ; font-size: 10.5px ; background-color: rgb(250 , 250 , 250)&quot;&gt;evenly divisible by 100?&lt;/span&gt;&lt;span style=&quot;color: rgb(102 , 102 , 102) ; font-family: &amp;#34;metropolis&amp;#34; , &amp;#34;avenir next&amp;#34; , &amp;#34;helvetica neue&amp;#34; , &amp;#34;arial&amp;#34; , sans-serif ; font-size: 10.5px ; background-color: rgb(250 , 250 , 250)&quot;&gt;&lt;br&gt;&lt;/span&gt;" style="rhombus;whiteSpace=wrap;html=1;shadow=0;fontFamily=Helvetica;fontSize=12;align=center;strokeWidth=1;spacing=6;spacingTop=-4;fillColor=#e1d5e7;strokeColor=#9673a6;" vertex="1" parent="WIyWlLk6GJQsqaUBKTNV-1">
          <mxGeometry x="227.5" y="190" width="155" height="120" as="geometry" />
        </mxCell>
        <mxCell id="x_gosHO5D3b1VZ5-VZWY-6" value="" style="endArrow=classic;html=1;rounded=0;exitX=1;exitY=0.5;exitDx=0;exitDy=0;" edge="1" parent="WIyWlLk6GJQsqaUBKTNV-1">
          <mxGeometry width="50" height="50" relative="1" as="geometry">
            <mxPoint x="382.5" y="249.5" as="sourcePoint" />
            <mxPoint x="435" y="249.5" as="targetPoint" />
          </mxGeometry>
        </mxCell>
        <mxCell id="x_gosHO5D3b1VZ5-VZWY-20" style="edgeStyle=orthogonalEdgeStyle;rounded=0;orthogonalLoop=1;jettySize=auto;html=1;exitX=1;exitY=0.5;exitDx=0;exitDy=0;entryX=0;entryY=0.5;entryDx=0;entryDy=0;" edge="1" parent="WIyWlLk6GJQsqaUBKTNV-1" source="x_gosHO5D3b1VZ5-VZWY-7" target="x_gosHO5D3b1VZ5-VZWY-21">
          <mxGeometry relative="1" as="geometry">
            <mxPoint x="617.5" y="250" as="targetPoint" />
          </mxGeometry>
        </mxCell>
        <mxCell id="x_gosHO5D3b1VZ5-VZWY-7" value="&lt;span style=&quot;color: rgb(102 , 102 , 102) ; font-family: &amp;#34;metropolis&amp;#34; , &amp;#34;avenir next&amp;#34; , &amp;#34;helvetica neue&amp;#34; , &amp;#34;arial&amp;#34; , sans-serif ; font-size: 10.5px ; background-color: rgb(250 , 250 , 250)&quot;&gt;&amp;nbsp;&lt;/span&gt;&lt;span style=&quot;color: rgb(102 , 102 , 102) ; font-family: &amp;#34;metropolis&amp;#34; , &amp;#34;avenir next&amp;#34; , &amp;#34;helvetica neue&amp;#34; , &amp;#34;arial&amp;#34; , sans-serif ; font-size: 10.5px ; background-color: rgb(250 , 250 , 250)&quot;&gt;evenly divisible by 400?&lt;/span&gt;&lt;br style=&quot;color: rgb(102 , 102 , 102) ; font-family: &amp;#34;metropolis&amp;#34; , &amp;#34;avenir next&amp;#34; , &amp;#34;helvetica neue&amp;#34; , &amp;#34;arial&amp;#34; , sans-serif ; font-size: 10.5px&quot;&gt;&lt;span style=&quot;color: rgb(102 , 102 , 102) ; font-family: &amp;#34;metropolis&amp;#34; , &amp;#34;avenir next&amp;#34; , &amp;#34;helvetica neue&amp;#34; , &amp;#34;arial&amp;#34; , sans-serif ; font-size: 10.5px ; background-color: rgb(250 , 250 , 250)&quot;&gt;year % 400 == 0&lt;/span&gt;" style="rhombus;whiteSpace=wrap;html=1;shadow=0;fontFamily=Helvetica;fontSize=12;align=center;strokeWidth=1;spacing=6;spacingTop=-4;fillColor=#ffe6cc;strokeColor=#d79b00;" vertex="1" parent="WIyWlLk6GJQsqaUBKTNV-1">
          <mxGeometry x="437.5" y="190" width="155" height="120" as="geometry" />
        </mxCell>
        <mxCell id="x_gosHO5D3b1VZ5-VZWY-8" value="" style="endArrow=classic;html=1;rounded=0;" edge="1" parent="WIyWlLk6GJQsqaUBKTNV-1">
          <mxGeometry width="50" height="50" relative="1" as="geometry">
            <mxPoint x="517.5" y="310" as="sourcePoint" />
            <mxPoint x="517.5" y="360" as="targetPoint" />
            <Array as="points">
              <mxPoint x="517.5" y="310" />
            </Array>
          </mxGeometry>
        </mxCell>
        <mxCell id="x_gosHO5D3b1VZ5-VZWY-9" value="No" style="text;html=1;align=center;verticalAlign=middle;resizable=0;points=[];autosize=1;strokeColor=none;fillColor=none;" vertex="1" parent="WIyWlLk6GJQsqaUBKTNV-1">
          <mxGeometry x="67.5" y="320" width="30" height="20" as="geometry" />
        </mxCell>
        <mxCell id="x_gosHO5D3b1VZ5-VZWY-10" value="Yes" style="text;html=1;align=center;verticalAlign=middle;resizable=0;points=[];autosize=1;strokeColor=none;fillColor=none;" vertex="1" parent="WIyWlLk6GJQsqaUBKTNV-1">
          <mxGeometry x="397.5" y="230" width="30" height="20" as="geometry" />
        </mxCell>
        <mxCell id="x_gosHO5D3b1VZ5-VZWY-11" value="Yes" style="text;html=1;align=center;verticalAlign=middle;resizable=0;points=[];autosize=1;strokeColor=none;fillColor=none;" vertex="1" parent="WIyWlLk6GJQsqaUBKTNV-1">
          <mxGeometry x="187.5" y="230" width="30" height="20" as="geometry" />
        </mxCell>
        <mxCell id="x_gosHO5D3b1VZ5-VZWY-12" value="Yes" style="text;html=1;align=center;verticalAlign=middle;resizable=0;points=[];autosize=1;strokeColor=none;fillColor=none;" vertex="1" parent="WIyWlLk6GJQsqaUBKTNV-1">
          <mxGeometry x="487.5" y="320" width="30" height="20" as="geometry" />
        </mxCell>
        <mxCell id="x_gosHO5D3b1VZ5-VZWY-13" value="leap year" style="rounded=1;whiteSpace=wrap;html=1;fontSize=12;glass=0;strokeWidth=1;shadow=0;fillColor=#dae8fc;strokeColor=#6c8ebf;" vertex="1" parent="WIyWlLk6GJQsqaUBKTNV-1">
          <mxGeometry x="455" y="360" width="120" height="40" as="geometry" />
        </mxCell>
        <mxCell id="x_gosHO5D3b1VZ5-VZWY-14" value="" style="endArrow=classic;html=1;rounded=0;exitX=0.5;exitY=1;exitDx=0;exitDy=0;" edge="1" parent="WIyWlLk6GJQsqaUBKTNV-1" source="x_gosHO5D3b1VZ5-VZWY-4">
          <mxGeometry width="50" height="50" relative="1" as="geometry">
            <mxPoint x="287.5" y="260" as="sourcePoint" />
            <mxPoint x="305.5" y="360" as="targetPoint" />
          </mxGeometry>
        </mxCell>
        <mxCell id="x_gosHO5D3b1VZ5-VZWY-15" value="leap year" style="rounded=1;whiteSpace=wrap;html=1;fontSize=12;glass=0;strokeWidth=1;shadow=0;fillColor=#dae8fc;strokeColor=#6c8ebf;" vertex="1" parent="WIyWlLk6GJQsqaUBKTNV-1">
          <mxGeometry x="245" y="360" width="120" height="40" as="geometry" />
        </mxCell>
        <mxCell id="x_gosHO5D3b1VZ5-VZWY-16" value="No" style="text;html=1;align=center;verticalAlign=middle;resizable=0;points=[];autosize=1;strokeColor=none;fillColor=none;" vertex="1" parent="WIyWlLk6GJQsqaUBKTNV-1">
          <mxGeometry x="271.5" y="320" width="30" height="20" as="geometry" />
        </mxCell>
        <mxCell id="x_gosHO5D3b1VZ5-VZWY-18" value="" style="endArrow=classic;html=1;rounded=0;exitX=0.5;exitY=1;exitDx=0;exitDy=0;" edge="1" parent="WIyWlLk6GJQsqaUBKTNV-1">
          <mxGeometry width="50" height="50" relative="1" as="geometry">
            <mxPoint x="97" y="310" as="sourcePoint" />
            <mxPoint x="97.5" y="360" as="targetPoint" />
          </mxGeometry>
        </mxCell>
        <mxCell id="x_gosHO5D3b1VZ5-VZWY-21" value="Not leap year" style="rounded=1;whiteSpace=wrap;html=1;fontSize=12;glass=0;strokeWidth=1;shadow=0;fillColor=#f8cecc;strokeColor=#b85450;" vertex="1" parent="WIyWlLk6GJQsqaUBKTNV-1">
          <mxGeometry x="627.5" y="230" width="120" height="40" as="geometry" />
        </mxCell>
        <mxCell id="x_gosHO5D3b1VZ5-VZWY-23" value="No" style="text;html=1;align=center;verticalAlign=middle;resizable=0;points=[];autosize=1;strokeColor=none;fillColor=none;" vertex="1" parent="WIyWlLk6GJQsqaUBKTNV-1">
          <mxGeometry x="592.5" y="230" width="30" height="20" as="geometry" />
        </mxCell>
      </root>
    </mxGraphModel>
  </diagram>
</mxfile>
